<?xml version="1.0" standalone="no"?>
<!DOCTYPE svg PUBLIC "-//W3C//DTD SVG 20010904//EN"
 "http://www.w3.org/TR/2001/REC-SVG-20010904/DTD/svg10.dtd">
<svg version="1.0" xmlns="http://www.w3.org/2000/svg"
 width="512.000000pt" height="512.000000pt" viewBox="0 0 512.000000 512.000000"
 preserveAspectRatio="xMidYMid meet">

<g transform="translate(0.000000,512.000000) scale(0.100000,-0.100000)"
fill="#000000" stroke="none">
<path d="M2480 4108 c-19 -5 -81 -32 -137 -58 l-102 -48 49 -148 c28 -82 50
-156 50 -166 0 -15 -9 -18 -47 -18 -76 0 -337 -29 -498 -55 -346 -57 -606
-146 -743 -254 -97 -77 -231 -71 1508 -71 1172 0 1560 3 1560 12 0 22 -84 88
-169 132 -69 36 -179 76 -328 122 -9 2 -13 33 -13 109 l0 105 -78 0 c-47 0
-83 -5 -90 -12 -7 -7 -12 -42 -12 -85 0 -40 -2 -73 -5 -73 -2 0 -60 9 -127 20
-145 23 -396 50 -468 50 -41 0 -50 3 -50 18 0 10 22 84 50 166 l49 148 -102
48 c-151 71 -211 83 -297 58z"/>
<path d="M960 3040 l0 -70 -205 0 -205 0 0 -90 0 -90 205 0 205 0 2 -787 3
-788 28 -56 c32 -67 109 -142 175 -172 l47 -22 1345 0 1345 0 56 28 c67 32
142 109 172 175 22 47 22 49 25 835 l2 787 205 0 205 0 0 90 0 90 -205 0 -205
0 0 70 0 70 -1600 0 -1600 0 0 -70z"/>
</g>
</svg>
